<svg width="32" height="32" viewBox="0 0 40 40" fill="none" xmlns="http://www.w3.org/2000/svg">
  <rect width="40" height="40" rx="11" fill="url(#g)"/>
  <path d="M20 11c-2.2 0-4 1.8-4 4v1.2h-1.2c-1 0-1.8.8-1.8 1.8V26c0 1 .8 1.8 1.8 1.8h9c1 0 1.8-.8 1.8-1.8v-7.9c0-1-.8-1.8-1.8-1.8H24V15c0-2.2-1.8-4-4-4z" fill="white" opacity="0.95"/>
  <path d="M20 24.5c-.8 1-2 1.6-3.2 1.6-1.8 0-3.2-1.4-3.2-3.2 0-1.2.7-2.3 1.7-2.9.5 1.6 2 2.7 3.7 2.7 1.7 0 3.2-1.1 3.7-2.7 1 0.6 1.7 1.7 1.7 2.9 0 1.8-1.4 3.2-3.2 3.2-1.2 0-2.4-.6-3.2-1.6z" fill="#86efac"/>
  <defs>
    <linearGradient id="g" x1="6" y1="4" x2="34" y2="36" gradientUnits="userSpaceOnUse">
      <stop stop-color="#059669"/>
      <stop offset="1" stop-color="#0f766e"/>
    </linearGradient>
  </defs>
</svg>
